<?xml version="1.0" standalone="no"?><!DOCTYPE svg PUBLIC "-//W3C//DTD SVG 1.1//EN" "http://www.w3.org/Graphics/SVG/1.1/DTD/svg11.dtd"><svg t="1555992160534" class="icon" style="" viewBox="0 0 1024 1024" version="1.1" xmlns="http://www.w3.org/2000/svg" p-id="50307" xmlns:xlink="http://www.w3.org/1999/xlink" width="200" height="200"><defs><style type="text/css"></style></defs><path d="M4.285 318.799l509.863 633.497-390.784-633.497zM514.148 952.296L1024 318.799H904.934zM143.208 95.93L4.285 294.375h119.079zM1024 294.375L885.089 95.93l19.845 198.445z" fill="#FF8600" p-id="50308"></path><path d="M512.146 640.972a560.55 560.55 0 0 1 1.81-6.188c-1.192 0-2.386-0.032-3.577-0.045 0.59 2.073 1.184 4.145 1.767 6.233zM172.211 294.375h4.281c0.008-1.056 0.021-2.111 0.04-3.165l-4.321 3.165zM856.078 294.375l-4.362-3.166c0.019 1.054 0.028 2.109 0.04 3.166h4.322z" fill="#FFA806" p-id="50309"></path><path d="M262.907 71.506a0.139 0.139 0 0 0-0.021 0.021l0.018-0.021H169.16l-25.95 218.289 34.771-24.739 272.052-193.55H262.907z" fill="#FF9A00" p-id="50310"></path><path d="M850.263 265.019l34.826 24.776-25.952-218.289H578.262l272.001 193.513" fill="#FF9A00" p-id="50311"></path><path d="M851.076 318.799H143.208l48.43 78.735 87.185 141.742c0.066 0.063 0.136 0.126 0.2 0.188-0.064-0.063-0.135-0.126-0.202-0.188l235.325 382.585 235.403-382.71 0.002-0.002 0.006-0.008 0.002-0.004 86.997-141.436 0.001-0.002 48.532-78.902-34.013 0.002zM564.615 631.022l-27.273 72.061h-49.224l-27.597-72.546h0.001l-90.76-238.587h55.664l66.797 186.329c6.527 18.18 12.576 37.005 18.151 56.46 1.19 0.013 2.383 0.045 3.576 0.045 4.516-15.107 10.45-32.771 17.819-52.99l69.143-189.844h54.198l-90.495 239.072z" fill="#FFA806" p-id="50312"></path><path d="M476.487 71.506L176.532 291.21a256.417 256.417 0 0 0-0.04 3.165h675.264c-0.012-1.057-0.021-2.112-0.04-3.166L548.733 71.506h-72.246z" fill="#FFA806" p-id="50313"></path></svg>