<?xml version="1.0" encoding="utf-8"?>
<!-- Generator: Adobe Illustrator 16.0.0, SVG Export Plug-In . SVG Version: 6.00 Build 0)  -->
<!DOCTYPE svg PUBLIC "-//W3C//DTD SVG 1.1//EN" "http://www.w3.org/Graphics/SVG/1.1/DTD/svg11.dtd">
<svg version="1.1" id="图层_1" xmlns="http://www.w3.org/2000/svg" xmlns:xlink="http://www.w3.org/1999/xlink" x="0px" y="0px"
	 width="486.523px" height="200px" viewBox="0 0 486.523 200" enable-background="new 0 0 486.523 200" xml:space="preserve">
<g id="_x32_">
	<g>
		<path fill="#FF6700" d="M386.404-0.196H100.118C44.972-0.167,0.278,44.672,0.249,99.996v100.199h386.155
			c55.164,0,99.87-44.859,99.87-100.199C486.274,44.664,441.568-0.196,386.404-0.196z M136.379,63.814
			c-1.551,0.517-2.713,1.296-3.466,2.365c-0.753,1.057-1.591,2.723-2.525,4.971L99.456,148.23l-6.608,0.645L65.822,71.917
			c-1.059-2.938-2.017-4.921-2.876-5.97c-0.859-1.041-2.086-1.813-3.683-2.329l-6.113-1.78l-0.254-3.255
			c5.716,0.167,11.42,0.248,17.132,0.248c7.615,0,15.028-0.082,22.247-0.248l0.311,3.255l-6.17,1.78
			c-0.838,0.256-1.448,0.577-1.825,0.959c-0.376,0.383-0.573,0.959-0.573,1.727c0,0.854,0.213,1.963,0.634,3.346
			c0.422,1.385,1.031,3.218,1.829,5.522l13.924,40.96c0.79,2.431,1.531,4.771,2.206,7.031c0.749-2.261,1.555-4.576,2.39-6.957
			l15.188-40.973c0.835-2.385,1.494-4.271,1.981-5.673c0.482-1.406,0.732-2.511,0.732-3.329c0-0.719-0.205-1.271-0.61-1.654
			c-0.393-0.382-0.994-0.675-1.788-0.89l-5.982-1.728l-0.201-3.377c6.092,0.167,11.052,0.248,14.877,0.248
			c3.985,0,8.523-0.082,13.601-0.248l0.388,3.255L136.379,63.814z M174.718,134.828c0.017,2.09,0.053,3.959,0.09,5.625
			c0.045,1.104,0.761,1.854,2.148,2.234l7.746,2.227l0.188,3.195c-5.839-0.129-12.303-0.195-19.407-0.195
			c-7.353,0-13.899,0.066-19.656,0.195l-0.312-3.195l8.441-2.365c1.051-0.293,1.612-0.949,1.702-1.975
			c0.037-1.697,0.074-3.602,0.09-5.705c0.021-2.105,0.037-4.43,0.037-6.992V77.022c0-2.125-0.016-4.063-0.037-5.808
			c-0.016-1.743-0.053-3.336-0.09-4.788c-0.044-1.101-0.552-1.804-1.514-2.096l-8.441-2.492l-0.188-3.255
			c5.839,0.167,12.312,0.248,19.403,0.248c7.308,0,13.866-0.082,19.66-0.248l0.312,3.255l-8.438,2.357
			c-1.01,0.256-1.555,0.898-1.645,1.911c-0.037,1.532-0.073,3.186-0.09,4.946c-0.02,1.771-0.037,3.666-0.037,5.71v51.114
			C174.681,130.439,174.698,132.748,174.718,134.828z M261.666,103.533c-6.07,5.131-14.623,7.691-25.675,7.691
			c-2.983,0-6.216-0.236-9.71-0.707v17.357c0,2.563,0.021,4.838,0.037,6.859c0.016,2.025,0.053,3.848,0.089,5.455
			c0.045,0.982,0.589,1.666,1.649,2.051l9.259,2.672l0.176,3.193c-6.498-0.129-13.306-0.193-20.396-0.193
			c-7.361,0-13.92,0.064-19.669,0.193l-0.311-3.193l8.445-2.365c1.092-0.332,1.657-0.99,1.702-1.975
			c0.033-1.697,0.07-3.604,0.085-5.705c0.021-2.104,0.037-4.432,0.037-6.992V77.022c0-2.125-0.016-4.063-0.037-5.808
			c-0.016-1.743-0.053-3.336-0.085-4.788c-0.045-1.101-0.548-1.804-1.514-2.096l-8.445-2.492l-0.188-3.255
			c5.884,0.167,11.694,0.248,17.451,0.248c3.94,0,7.782-0.082,11.501-0.248c3.715-0.179,7.111-0.26,10.172-0.26
			c11.338,0,19.934,1.983,25.772,5.97c5.841,3.975,8.763,9.872,8.763,17.699C270.773,91.226,267.727,98.416,261.666,103.533z
			 M386.458,186.906l-0.098,0.098h-86.468v-86.955c0-47.969,38.763-86.857,86.563-86.857c47.813,0,86.572,38.889,86.572,86.857
			C473.03,148.012,434.27,186.906,386.458,186.906z M233.287,64.452c-2.313,0-4.648,0.17-7.005,0.508v39.429
			c2.401,0.471,4.774,0.715,7.127,0.715c5.5,0,9.693-1.715,12.565-5.141c2.877-3.425,4.315-8.603,4.315-15.541
			c0-6.718-1.371-11.733-4.092-15.025C243.458,66.098,239.162,64.452,233.287,64.452z M355.074,128.873
			c3.767-2.628,8.069-4.881,12.926-6.757c4.846-1.89,10.547-3.673,17.081-5.362c6.136-1.548,11.905-3.154,17.279-4.845
			c5.384-1.688,10.286-3.835,14.709-6.464c4.947-2.896,8.704-6.263,11.236-10.1c2.534-3.834,3.813-8.891,3.813-15.143
			c0-12.118-4.798-20.904-14.405-26.359c-9.604-5.455-22.204-8.177-37.784-8.177c-13.466,0-24.892,2.992-34.264,8.986
			c-9.373,5.994-14.064,13.091-14.064,21.303c0,4.714,1.468,8.714,4.411,12.024c2.934,3.295,6.872,4.949,11.823,4.949
			c5.219,0,9.514-1.419,12.879-4.247c3.368-2.826,5.044-6.627,5.044-11.414c0-3.976-0.456-7.565-1.384-10.803
			c-0.915-3.238-1.876-6.358-2.863-9.385c1.984-0.821,3.896-1.372,5.704-1.666c1.829-0.305,3.767-0.469,5.817-0.469
			c6.546,0,11.824,1.96,15.789,5.865c3.976,3.906,5.957,10.136,5.957,18.675c0,3.848-0.516,7.319-1.522,10.405
			c-1.033,3.108-2.732,5.96-5.115,8.585c-2.383,2.828-5.651,5.538-9.831,8.129c-4.149,2.592-9.313,5.537-15.461,8.847
			c-5.758,3.083-11.424,6.638-17.009,10.649c-5.594,4-10.732,8.424-15.426,13.277v18.273h107.346v-27.67h-82.688L355.074,128.873
			L355.074,128.873z"/>
	</g>
</g>
</svg>
