<?xml version="1.0" encoding="utf-8"?>
<!-- Generator: Adobe Illustrator 16.0.0, SVG Export Plug-In . SVG Version: 6.00 Build 0)  -->
<!DOCTYPE svg PUBLIC "-//W3C//DTD SVG 1.1//EN" "http://www.w3.org/Graphics/SVG/1.1/DTD/svg11.dtd">
<svg version="1.1" id="图层_1" xmlns="http://www.w3.org/2000/svg" xmlns:xlink="http://www.w3.org/1999/xlink" x="0px" y="0px"
	 width="486.523px" height="200px" viewBox="0 0 486.523 200" enable-background="new 0 0 486.523 200" xml:space="preserve">
<g id="_x33_">
	<g>
		
			<linearGradient id="SVGID_1_" gradientUnits="userSpaceOnUse" x1="490.9219" y1="-169.7642" x2="490.9219" y2="-370.1553" gradientTransform="matrix(1 0 0 -1 -247.6602 -169.96)">
			<stop  offset="0" style="stop-color:#FFB74A"/>
			<stop  offset="1" style="stop-color:#FFB350"/>
		</linearGradient>
		<path fill="url(#SVGID_1_)" d="M386.404-0.196H100.118C44.972-0.167,0.278,44.672,0.249,99.996v100.199h386.155
			c55.164,0,99.87-44.859,99.87-100.199C486.274,44.664,441.568-0.196,386.404-0.196z M136.379,63.814
			c-1.551,0.517-2.713,1.296-3.466,2.365c-0.753,1.057-1.591,2.723-2.525,4.971L99.456,148.23l-6.608,0.645L65.822,71.917
			c-1.059-2.938-2.017-4.921-2.876-5.97c-0.859-1.041-2.086-1.813-3.683-2.329l-6.113-1.78l-0.254-3.255
			c5.716,0.167,11.42,0.248,17.132,0.248c7.615,0,15.028-0.082,22.247-0.248l0.311,3.255l-6.17,1.78
			c-0.838,0.256-1.448,0.577-1.825,0.959c-0.376,0.383-0.573,0.959-0.573,1.727c0,0.854,0.213,1.963,0.634,3.346
			c0.422,1.385,1.031,3.218,1.829,5.522l13.924,40.96c0.79,2.431,1.531,4.771,2.206,7.031c0.749-2.261,1.555-4.576,2.39-6.957
			l15.188-40.973c0.835-2.385,1.494-4.271,1.981-5.673c0.482-1.406,0.732-2.511,0.732-3.329c0-0.719-0.205-1.271-0.61-1.654
			c-0.393-0.382-0.994-0.675-1.788-0.89l-5.982-1.728l-0.201-3.377c6.092,0.167,11.052,0.248,14.877,0.248
			c3.985,0,8.523-0.082,13.601-0.248l0.388,3.255L136.379,63.814z M174.718,134.828c0.017,2.09,0.053,3.959,0.09,5.625
			c0.045,1.104,0.761,1.854,2.148,2.234l7.746,2.227l0.188,3.195c-5.839-0.129-12.303-0.195-19.407-0.195
			c-7.353,0-13.899,0.066-19.656,0.195l-0.312-3.195l8.441-2.365c1.051-0.293,1.612-0.949,1.702-1.975
			c0.037-1.697,0.074-3.602,0.09-5.705c0.021-2.105,0.037-4.43,0.037-6.992V77.022c0-2.125-0.016-4.063-0.037-5.808
			c-0.016-1.743-0.053-3.336-0.09-4.788c-0.044-1.101-0.552-1.804-1.514-2.096l-8.441-2.492l-0.188-3.255
			c5.839,0.167,12.312,0.248,19.403,0.248c7.308,0,13.866-0.082,19.66-0.248l0.312,3.255l-8.438,2.357
			c-1.01,0.256-1.555,0.898-1.645,1.911c-0.037,1.532-0.073,3.186-0.09,4.946c-0.02,1.771-0.037,3.666-0.037,5.71v51.114
			C174.681,130.439,174.698,132.748,174.718,134.828z M261.666,103.533c-6.07,5.131-14.623,7.691-25.675,7.691
			c-2.983,0-6.216-0.236-9.71-0.707v17.358c0,2.563,0.021,4.838,0.037,6.86c0.016,2.025,0.053,3.847,0.089,5.455
			c0.045,0.982,0.589,1.666,1.649,2.05l9.259,2.672l0.176,3.194c-6.498-0.129-13.306-0.194-20.396-0.194
			c-7.361,0-13.92,0.065-19.669,0.194l-0.311-3.194l8.445-2.365c1.092-0.332,1.657-0.991,1.702-1.975
			c0.033-1.697,0.07-3.603,0.085-5.705c0.021-2.104,0.037-4.431,0.037-6.992V77.022c0-2.125-0.016-4.063-0.037-5.808
			c-0.016-1.743-0.053-3.336-0.085-4.788c-0.045-1.101-0.548-1.804-1.514-2.096l-8.445-2.492l-0.188-3.255
			c5.884,0.167,11.694,0.248,17.451,0.248c3.94,0,7.782-0.082,11.501-0.248c3.715-0.179,7.111-0.26,10.172-0.26
			c11.338,0,19.934,1.983,25.772,5.97c5.841,3.975,8.763,9.872,8.763,17.699C270.773,91.226,267.727,98.416,261.666,103.533z
			 M386.458,186.906l-0.098,0.098h-86.467v-86.955c0-47.969,38.762-86.857,86.563-86.857c47.813,0,86.572,38.889,86.572,86.857
			C473.03,148.012,434.27,186.906,386.458,186.906z M233.287,64.452c-2.313,0-4.648,0.17-7.005,0.508v39.429
			c2.401,0.471,4.774,0.715,7.127,0.715c5.5,0,9.693-1.715,12.565-5.141c2.877-3.425,4.316-8.603,4.316-15.541
			c0-6.718-1.371-11.733-4.092-15.025C243.458,66.098,239.162,64.452,233.287,64.452z M412.274,104.42
			c-2.962-2.034-6.378-3.568-10.229-4.614c-3.869-1.045-7.456-1.661-10.781-1.88v-1.244c4.86-1.045,9.104-2.534,12.726-4.459
			c3.634-1.926,6.576-4.215,8.828-6.885c1.835-2.18,3.232-4.723,4.178-7.611c0.945-2.897,1.418-5.485,1.418-7.784
			c0-2.397-0.546-5.095-1.653-8.092c-1.091-2.997-3.079-5.794-5.939-8.41c-2.907-2.652-6.885-4.896-11.925-6.722
			c-5.032-1.825-11.382-2.733-19.047-2.733c-11.098,0-20.307,2.28-27.646,6.839c-7.339,4.559-11.008,10.072-11.008,16.53
			c0,3.651,1.145,6.757,3.416,9.309c2.27,2.552,5.331,3.833,9.164,3.833c4.04,0,7.31-1.098,9.816-3.279
			c2.498-2.197,3.75-5.14,3.75-8.846c0-2.234-0.409-4.94-1.226-8.128c-0.816-3.178-1.508-5.658-2.07-7.42
			c1.535-0.636,3.041-1.063,4.522-1.29c1.489-0.236,3.225-0.364,5.214-0.364c5.268,0,9.291,1.608,12.079,4.814
			s4.179,8.011,4.179,14.422c0,7.974-1.444,13.915-4.333,17.792c-2.888,3.878-7.548,5.822-13.995,5.822h-6.902v9.462h9.744
			c3.833,0,6.984,0.563,9.474,1.682c2.471,1.115,4.432,2.67,5.865,4.648c1.429,1.989,2.407,4.297,2.945,6.967
			c0.544,2.652,0.808,5.469,0.808,8.438c0,5.215-0.6,9.4-1.809,12.555c-1.199,3.149-2.896,5.901-5.095,8.246
			c-2.1,2.242-4.561,3.857-7.402,4.85c-2.832,0.99-5.739,1.48-8.7,1.48c-2.396,0-4.496-0.146-6.285-0.428
			c-1.788-0.281-3.251-0.689-4.378-1.208c0.52-1.517,1.218-3.851,2.116-7.004c0.898-3.149,1.336-6.003,1.336-8.563
			c0-3.694-1.291-6.656-3.87-8.863c-2.577-2.217-5.886-3.323-9.927-3.323c-3.887,0-6.982,1.271-9.309,3.822
			c-2.334,2.553-3.498,5.686-3.498,9.383c0,6.576,3.604,12.106,10.816,16.62c7.202,4.505,15.969,6.758,26.294,6.758
			c14.414,0,26.202-3.232,35.349-9.691c9.146-6.466,13.724-14.576,13.724-24.313c0-5.061-1.018-9.318-3.06-12.789
			C417.903,109.279,415.344,106.509,412.274,104.42z"/>
	</g>
</g>
</svg>
